<svg width="171" height="16" viewBox="0 0 171 16" fill="none" xmlns="http://www.w3.org/2000/svg">
<path d="M113.256 15.1972L104.993 0.522827H96.3242V12.9695C96.3242 13.3797 95.7812 13.5224 95.579 13.1657L88.438 0.522827H79.7393V15.1972H83.8716V2.46712C83.8716 2.05686 84.4147 1.91416 84.6168 2.27091L91.8926 15.1972H100.455V2.51667C100.455 2.10641 100.998 1.96371 101.2 2.32046L108.448 15.1972H113.256Z" fill="white"/>
<path d="M51.0862 15.1971H33.8947C29.8139 15.1971 26.4941 11.9923 26.4941 7.91146C26.4941 3.83063 29.8139 0.510864 33.8947 0.510864H51.0862V4.67296H33.8947C32.109 4.67296 30.6543 6.12573 30.6543 7.91345C30.6543 9.70117 32.107 11.1539 33.8947 11.1539H51.0862V15.1991V15.1971Z" fill="white"/>
<path d="M132.984 15.1971H115.897V3.95941V0.572266H132.984C137.037 0.572266 140.333 3.86824 140.333 7.92133C140.333 11.9744 137.037 15.1951 132.984 15.1951V15.1971ZM120.012 11.14H132.982C134.756 11.14 136.199 9.69716 136.199 7.92332C136.199 6.14947 134.756 4.70661 132.982 4.70661H120.012V11.142V11.14Z" fill="white"/>
<path d="M24.8527 15.1971H0.435089V11.0389H20.3914C20.5737 11.0389 20.7204 10.8923 20.7204 10.7099C20.7204 10.5355 20.5856 10.3908 20.4112 10.3809L4.50602 9.41174C2.18912 9.23535 0.399414 7.30493 0.399414 4.98209C0.399414 2.52843 2.38731 0.540527 4.84097 0.540527H24.8844V4.6729H4.84097C4.66854 4.6729 4.5298 4.81164 4.5298 4.98407C4.5298 5.14659 4.65466 5.28136 4.81718 5.29326L24.8507 6.81341V15.199L24.8527 15.1971Z" fill="white"/>
<path d="M73.3395 0.57425V7.4972L58.6612 5.323C57.7931 5.19417 57.1509 4.45094 57.1509 3.57293V0.572266H53.0186V15.1951H57.1509V9.22943L71.8293 11.4036C72.6974 11.5324 73.3395 12.2757 73.3395 13.1537V15.1971H77.4719V0.57425H73.3395Z" fill="white"/>
<path d="M111.569 5.19619C112.842 5.19619 113.874 4.1642 113.874 2.89118C113.874 1.61816 112.842 0.586182 111.569 0.586182C110.296 0.586182 109.264 1.61816 109.264 2.89118C109.264 4.1642 110.296 5.19619 111.569 5.19619Z" fill="white"/>
<path d="M148.693 1.75159H148.255V4.90686H148.693V1.75159Z" fill="white"/>
<path d="M151.545 4.31029L149.906 1.75159H149.393V4.90686H149.827V2.34816L151.462 4.90686H151.975V1.75159H151.545V4.31029Z" fill="white"/>
<path d="M149.775 8.58537C149.044 8.58537 148.711 8.02844 148.711 7.35854C148.711 6.68864 149.044 6.13171 149.775 6.13171C150.239 6.13171 150.568 6.42108 150.651 6.83729H151.093C150.984 6.20306 150.506 5.72937 149.775 5.72937C148.766 5.72937 148.255 6.47855 148.255 7.35854C148.255 8.23853 148.768 8.9877 149.775 8.9877C150.546 8.9877 151.032 8.46249 151.115 7.77871H150.673C150.611 8.24249 150.278 8.58537 149.775 8.58537Z" fill="white"/>
<path d="M153.04 5.72729C152.031 5.72729 151.52 6.47647 151.52 7.35645C151.52 8.23644 152.033 8.98561 153.04 8.98561C154.047 8.98561 154.556 8.23644 154.556 7.35645C154.556 6.47647 154.043 5.72729 153.04 5.72729ZM153.04 8.58527C152.308 8.58527 151.975 8.02834 151.975 7.35844C151.975 6.68854 152.308 6.13161 153.04 6.13161C153.771 6.13161 154.1 6.68854 154.1 7.35844C154.1 8.02834 153.771 8.58527 153.04 8.58527Z" fill="white"/>
<path d="M157.056 7.43767C157.389 7.26722 157.548 6.98579 157.548 6.6885C157.548 6.14148 157.207 5.78076 156.452 5.78076H155.12V8.93602H155.558V7.61208H156.448C156.803 7.61208 156.979 7.75677 157.031 8.12541L157.144 8.93602H157.596L157.447 7.9728C157.411 7.71911 157.294 7.53082 157.056 7.43767ZM156.436 7.23155H155.56V6.16724H156.436C156.896 6.16724 157.098 6.37336 157.098 6.69642C157.098 7.01948 156.896 7.23155 156.436 7.23155Z" fill="white"/>
<path d="M159.437 5.78076H158.156V8.93602H158.594V7.74488H159.435C160.188 7.74488 160.539 7.3029 160.539 6.76381C160.539 6.22472 160.188 5.78275 159.435 5.78275L159.437 5.78076ZM159.431 7.35443H158.594V6.17121H159.431C159.89 6.17121 160.093 6.42094 160.093 6.76381C160.093 7.10669 159.89 7.35443 159.431 7.35443Z" fill="white"/>
<path d="M162.456 5.72729C161.447 5.72729 160.936 6.47647 160.936 7.35645C160.936 8.23644 161.449 8.98561 162.456 8.98561C163.463 8.98561 163.972 8.23644 163.972 7.35645C163.972 6.47647 163.459 5.72729 162.456 5.72729ZM162.456 8.58527C161.724 8.58527 161.391 8.02834 161.391 7.35844C161.391 6.68854 161.724 6.13161 162.456 6.13161C163.187 6.13161 163.516 6.68854 163.516 7.35844C163.516 8.02834 163.187 8.58527 162.456 8.58527Z" fill="white"/>
<path d="M166.475 7.43767C166.808 7.26722 166.967 6.98579 166.967 6.6885C166.967 6.14148 166.626 5.78076 165.871 5.78076H164.539V8.93602H164.977V7.61208H165.867C166.222 7.61208 166.398 7.75677 166.45 8.12541L166.565 8.93602H167.017L166.868 7.9728C166.832 7.71911 166.715 7.53082 166.477 7.43767H166.475ZM165.853 7.23155H164.977V6.16724H165.853C166.313 6.16724 166.515 6.37336 166.515 6.69642C166.515 7.01948 166.313 7.23155 165.853 7.23155Z" fill="white"/>
<path d="M168.64 5.78076L167.369 8.93602H167.829L168.162 8.0818H169.603L169.936 8.93602H170.4L169.125 5.78076H168.64ZM168.311 7.69137L168.885 6.21481L169.454 7.69137H168.311Z" fill="white"/>
<path d="M149.775 12.8385C149.044 12.8385 148.711 12.2816 148.711 11.6117C148.711 10.9418 149.044 10.3849 149.775 10.3849C150.239 10.3849 150.568 10.6743 150.651 11.0905H151.093C150.984 10.4562 150.506 9.98254 149.775 9.98254C148.766 9.98254 148.255 10.7317 148.255 11.6117C148.255 12.4402 148.711 13.1537 149.605 13.2329L149.924 13.552H149.404V13.9326H150.383L150.518 13.6075L150.114 13.2032C150.689 13.0724 151.047 12.6086 151.117 12.0319H150.675C150.613 12.4957 150.28 12.8385 149.777 12.8385H149.775Z" fill="white"/>
<path d="M153.04 9.98059C152.031 9.98059 151.52 10.7298 151.52 11.6098C151.52 12.4897 152.033 13.2389 153.04 13.2389C154.047 13.2389 154.556 12.4897 154.556 11.6098C154.556 10.7298 154.043 9.98059 153.04 9.98059ZM153.04 12.8386C152.308 12.8386 151.975 12.2816 151.975 11.6117C151.975 10.9418 152.308 10.3849 153.04 10.3849C153.771 10.3849 154.1 10.9418 154.1 11.6117C154.1 12.2816 153.771 12.8386 153.04 12.8386Z" fill="white"/>
<path d="M155.12 13.1873H157.334V12.7949H155.558V11.7425H157.219V11.352H155.558V10.4285H157.352V10.0341H155.12V13.1873Z" fill="white"/>
<path d="M159.023 11.3739C158.309 11.2292 158.212 11.0885 158.212 10.809C158.212 10.5296 158.466 10.3671 158.856 10.3671C159.403 10.3671 159.641 10.591 159.667 11.0191H160.105C160.091 10.4444 159.732 9.98059 158.856 9.98059C158.226 9.98059 157.76 10.3056 157.76 10.813C157.76 11.3878 158.133 11.6098 158.856 11.7604C159.57 11.909 159.72 12.0458 159.72 12.3173C159.72 12.6761 159.413 12.8564 158.979 12.8564C158.545 12.8564 158.125 12.686 158.103 12.129H157.661C157.683 12.904 158.248 13.2429 158.975 13.2429C159.703 13.2429 160.172 12.8842 160.172 12.3134C160.172 11.8496 159.948 11.5642 159.025 11.3759L159.023 11.3739Z" fill="white"/>
<path d="M153.895 9.31067H152.232V9.69121H153.895V9.31067Z" fill="white"/>
</svg>
